<svg xmlns="http://www.w3.org/2000/svg" width="512" height="512" viewBox="0 0 512 512">
  <defs>
    <radialGradient id="bg" cx="50%" cy="50%" r="80%">
      <stop offset="0%" stop-color="#0b2a3f" />
      <stop offset="55%" stop-color="#081e33" />
      <stop offset="100%" stop-color="#04121f" />
    </radialGradient>
    <pattern id="grid" width="64" height="64" patternUnits="userSpaceOnUse">
      <rect width="64" height="64" fill="none" stroke="#123a57" stroke-width="1" />
      <path d="M32 0 V64 M0 32 H64" fill="none" stroke="#175072" stroke-width="0.75" stroke-dasharray="4 6" />
    </pattern>
    <path id="arc" d="M0 0 C32 -12 64 -12 96 0" fill="none" stroke="#2da3d9" stroke-width="1.8" stroke-dasharray="6 5" opacity="0.65" />
  </defs>
  <rect width="512" height="512" fill="url(#bg)" />
  <rect width="512" height="512" fill="url(#grid)" opacity="0.32" />
  <g transform="translate(64 128) rotate(-12)">
    <use href="#arc" />
    <use href="#arc" transform="translate(0 38)" />
    <use href="#arc" transform="translate(0 76)" />
  </g>
  <g transform="translate(120 320) rotate(18)">
    <use href="#arc" />
    <use href="#arc" transform="translate(0 42)" />
  </g>
  <g fill="#59c4ff" font-family="'Fira Sans', 'Geist', sans-serif" font-size="18" opacity="0.65">
    <text transform="translate(92 96) rotate(-14)">EGLL</text>
    <text transform="translate(388 182) rotate(12)">EGKK</text>
    <text transform="translate(220 360) rotate(-8)">LHR TMA</text>
  </g>
  <g stroke="#78d9ff" stroke-width="0.7" opacity="0.55">
    <circle cx="156" cy="166" r="54" fill="none" />
    <circle cx="338" cy="280" r="42" fill="none" />
    <line x1="156" y1="112" x2="156" y2="220" />
    <line x1="338" y1="238" x2="338" y2="322" />
    <line x1="124" y1="166" x2="188" y2="166" />
    <line x1="306" y1="280" x2="370" y2="280" />
  </g>
</svg>
